# Blender v2.79 (sub 0) OBJ File: ''
# www.blender.org
mtllib axes.mtl
o Cone
v 0.001042 0.892193 -0.259952
v 0.001042 1.762382 -0.000521
v 0.051655 0.892193 -0.254967
v 0.100322 0.892193 -0.240204
v 0.145174 0.892193 -0.216230
v 0.184487 0.892193 -0.183966
v 0.216751 0.892193 -0.144653
v 0.240725 0.892193 -0.099801
v 0.255488 0.892193 -0.051133
v 0.260473 0.892193 -0.000521
v 0.255488 0.892193 0.050092
v 0.240725 0.892193 0.098759
v 0.216751 0.892193 0.143611
v 0.184487 0.892193 0.182924
v 0.145174 0.892193 0.215188
v 0.100322 0.892193 0.239162
v 0.051655 0.892193 0.253925
v 0.001042 0.892193 0.258910
v -0.049570 0.892193 0.253925
v -0.098238 0.892193 0.239162
v -0.143090 0.892193 0.215188
v -0.182404 0.892193 0.182924
v -0.214667 0.892193 0.143611
v -0.238641 0.892193 0.098759
v -0.253404 0.892193 0.050091
v -0.258389 0.892193 -0.000521
v -0.253404 0.892193 -0.051133
v -0.238641 0.892193 -0.099801
v -0.214667 0.892193 -0.144653
v -0.182403 0.892193 -0.183967
v -0.143090 0.892193 -0.216230
v -0.098237 0.892193 -0.240204
v -0.049570 0.892193 -0.254967
v 0.000000 0.002626 -0.075831
v 0.000000 1.327276 -0.075830
v 0.014794 1.327276 -0.074373
v 0.014794 0.002626 -0.074374
v 0.029019 1.327276 -0.070058
v 0.029019 0.002626 -0.070058
v 0.042129 1.327276 -0.063051
v 0.042129 0.002626 -0.063051
v 0.053620 1.327276 -0.053620
v 0.053620 0.002626 -0.053620
v 0.063051 1.327276 -0.042129
v 0.063051 0.002626 -0.042129
v 0.070058 1.327276 -0.029019
v 0.070058 0.002626 -0.029019
v 0.074374 1.327276 -0.014794
v 0.074374 0.002626 -0.014794
v 0.075831 1.327276 0.000000
v 0.075831 0.002626 0.000000
v 0.074374 1.327276 0.014794
v 0.074374 0.002626 0.014794
v 0.070058 1.327276 0.029019
v 0.070058 0.002626 0.029019
v 0.063051 1.327276 0.042129
v 0.063051 0.002626 0.042129
v 0.053620 1.327276 0.053620
v 0.053620 0.002626 0.053620
v 0.042129 1.327276 0.063051
v 0.042129 0.002626 0.063051
v 0.029019 1.327276 0.070059
v 0.029019 0.002626 0.070058
v 0.014794 1.327276 0.074374
v 0.014794 0.002626 0.074374
v 0.000000 1.327276 0.075831
v 0.000000 0.002626 0.075831
v -0.014794 1.327276 0.074374
v -0.014794 0.002626 0.074374
v -0.029019 1.327276 0.070059
v -0.029019 0.002626 0.070058
v -0.042129 1.327276 0.063051
v -0.042129 0.002626 0.063051
v -0.053620 1.327276 0.053620
v -0.053620 0.002626 0.053620
v -0.063051 1.327276 0.042129
v -0.063051 0.002626 0.042129
v -0.070058 1.327276 0.029019
v -0.070058 0.002626 0.029019
v -0.074374 1.327276 0.014794
v -0.074374 0.002626 0.014794
v -0.075831 1.327276 0.000000
v -0.075831 0.002626 0.000000
v -0.074374 1.327276 -0.014794
v -0.074374 0.002626 -0.014794
v -0.070058 1.327276 -0.029019
v -0.070058 0.002626 -0.029019
v -0.063051 1.327276 -0.042129
v -0.063051 0.002626 -0.042129
v -0.053620 1.327276 -0.053620
v -0.053620 0.002626 -0.053620
v -0.042129 1.327276 -0.063051
v -0.042129 0.002626 -0.063051
v -0.029019 1.327276 -0.070058
v -0.029019 0.002626 -0.070058
v -0.014794 1.327276 -0.074373
v -0.014794 0.002626 -0.074374
vn 0.0940 0.2844 -0.9541
vn 0.2783 0.2844 -0.9174
vn 0.4519 0.2844 -0.8455
vn 0.6082 0.2844 -0.7411
vn 0.7411 0.2844 -0.6082
vn 0.8455 0.2844 -0.4519
vn 0.9174 0.2844 -0.2783
vn 0.9541 0.2844 -0.0940
vn 0.9541 0.2844 0.0940
vn 0.9174 0.2844 0.2783
vn 0.8455 0.2844 0.4519
vn 0.7411 0.2844 0.6082
vn 0.6082 0.2844 0.7411
vn 0.4519 0.2844 0.8455
vn 0.2783 0.2844 0.9174
vn 0.0940 0.2844 0.9541
vn -0.0940 0.2844 0.9541
vn -0.2783 0.2844 0.9174
vn -0.4519 0.2844 0.8455
vn -0.6082 0.2844 0.7411
vn -0.7411 0.2844 0.6082
vn -0.8455 0.2844 0.4519
vn -0.9174 0.2844 0.2783
vn -0.9541 0.2844 0.0940
vn -0.9541 0.2844 -0.0940
vn -0.9174 0.2844 -0.2783
vn -0.8455 0.2844 -0.4519
vn -0.7411 0.2844 -0.6082
vn -0.6082 0.2844 -0.7411
vn -0.4519 0.2844 -0.8455
vn -0.2783 0.2844 -0.9174
vn -0.0940 0.2844 -0.9541
vn 0.0000 -1.0000 -0.0000
vn 0.0980 0.0000 -0.9952
vn 0.2903 0.0000 -0.9569
vn 0.4714 0.0000 -0.8819
vn 0.6344 0.0000 -0.7730
vn 0.7730 0.0000 -0.6344
vn 0.8819 0.0000 -0.4714
vn 0.9569 0.0000 -0.2903
vn 0.9952 0.0000 -0.0980
vn 0.9952 -0.0000 0.0980
vn 0.9569 -0.0000 0.2903
vn 0.8819 -0.0000 0.4714
vn 0.7730 -0.0000 0.6344
vn 0.6344 -0.0000 0.7730
vn 0.4714 -0.0000 0.8819
vn 0.2903 -0.0000 0.9569
vn 0.0980 -0.0000 0.9952
vn -0.0980 -0.0000 0.9952
vn -0.2903 -0.0000 0.9569
vn -0.4714 -0.0000 0.8819
vn -0.6344 -0.0000 0.7730
vn -0.7730 -0.0000 0.6344
vn -0.8819 -0.0000 0.4714
vn -0.9569 -0.0000 0.2903
vn -0.9952 -0.0000 0.0980
vn -0.9952 0.0000 -0.0980
vn -0.9569 0.0000 -0.2903
vn -0.8819 0.0000 -0.4714
vn -0.7730 0.0000 -0.6344
vn -0.6344 0.0000 -0.7730
vn -0.4714 0.0000 -0.8819
vn 0.0000 1.0000 -0.0000
vn -0.2903 0.0000 -0.9569
vn -0.0980 0.0000 -0.9952
usemtl None
s 1
f 1//1 2//1 3//1
f 3//2 2//2 4//2
f 4//3 2//3 5//3
f 5//4 2//4 6//4
f 6//5 2//5 7//5
f 7//6 2//6 8//6
f 8//7 2//7 9//7
f 9//8 2//8 10//8
f 10//9 2//9 11//9
f 11//10 2//10 12//10
f 12//11 2//11 13//11
f 13//12 2//12 14//12
f 14//13 2//13 15//13
f 15//14 2//14 16//14
f 16//15 2//15 17//15
f 17//16 2//16 18//16
f 18//17 2//17 19//17
f 19//18 2//18 20//18
f 20//19 2//19 21//19
f 21//20 2//20 22//20
f 22//21 2//21 23//21
f 23//22 2//22 24//22
f 24//23 2//23 25//23
f 25//24 2//24 26//24
f 26//25 2//25 27//25
f 27//26 2//26 28//26
f 28//27 2//27 29//27
f 29//28 2//28 30//28
f 30//29 2//29 31//29
f 31//30 2//30 32//30
f 32//31 2//31 33//31
f 33//32 2//32 1//32
f 1//33 3//33 4//33 5//33 6//33 7//33 8//33 9//33 10//33 11//33 12//33 13//33 14//33 15//33 16//33 17//33 18//33 19//33 20//33 21//33 22//33 23//33 24//33 25//33 26//33 27//33 28//33 29//33 30//33 31//33 32//33 33//33
f 34//34 35//34 36//34 37//34
f 37//35 36//35 38//35 39//35
f 39//36 38//36 40//36 41//36
f 41//37 40//37 42//37 43//37
f 43//38 42//38 44//38 45//38
f 45//39 44//39 46//39 47//39
f 47//40 46//40 48//40 49//40
f 49//41 48//41 50//41 51//41
f 51//42 50//42 52//42 53//42
f 53//43 52//43 54//43 55//43
f 55//44 54//44 56//44 57//44
f 57//45 56//45 58//45 59//45
f 59//46 58//46 60//46 61//46
f 61//47 60//47 62//47 63//47
f 63//48 62//48 64//48 65//48
f 65//49 64//49 66//49 67//49
f 67//50 66//50 68//50 69//50
f 69//51 68//51 70//51 71//51
f 71//52 70//52 72//52 73//52
f 73//53 72//53 74//53 75//53
f 75//54 74//54 76//54 77//54
f 77//55 76//55 78//55 79//55
f 79//56 78//56 80//56 81//56
f 81//57 80//57 82//57 83//57
f 83//58 82//58 84//58 85//58
f 85//59 84//59 86//59 87//59
f 87//60 86//60 88//60 89//60
f 89//61 88//61 90//61 91//61
f 91//62 90//62 92//62 93//62
f 93//63 92//63 94//63 95//63
f 36//64 35//64 96//64 94//64 92//64 90//64 88//64 86//64 84//64 82//64 80//64 78//64 76//64 74//64 72//64 70//64 68//64 66//64 64//64 62//64 60//64 58//64 56//64 54//64 52//64 50//64 48//64 46//64 44//64 42//64 40//64 38//64
f 95//65 94//65 96//65 97//65
f 97//66 96//66 35//66 34//66
f 34//33 37//33 39//33 41//33 43//33 45//33 47//33 49//33 51//33 53//33 55//33 57//33 59//33 61//33 63//33 65//33 67//33 69//33 71//33 73//33 75//33 77//33 79//33 81//33 83//33 85//33 87//33 89//33 91//33 93//33 95//33 97//33
